PathFileType	3	(X/Y/Z)	RCH0000002 BBF 10.c3d
DataRate	CameraRate	NumFrames	NumMarkers	Units	OrigDataRate	OrigDataStartFrame	OrigNumFrames
100.0	100.0	5	23	mm	100.0	224	464
Frame#	Time	MAN			RASI			LKNE			LANK			LHEE			LTOE			RPAT			RKNE			RANK			RMED			RHEE			RTOE			LPAT			RPSI			LMED			LASI			T2			LPSI			T10			RTHI			LTHI			RTIB			LTIB			
		X1	Y1	Z1	X2	Y2	Z2	X3	Y3	Z3	X4	Y4	Z4	X5	Y5	Z5	X6	Y6	Z6	X7	Y7	Z7	X8	Y8	Z8	X9	Y9	Z9	X10	Y10	Z10	X11	Y11	Z11	X12	Y12	Z12	X13	Y13	Z13	X14	Y14	Z14	X15	Y15	Z15	X16	Y16	Z16	X17	Y17	Z17	X18	Y18	Z18	X19	Y19	Z19	X20	Y20	Z20	X21	Y21	Z21	X22	Y22	Z22	X23	Y23	Z23	

224	2.230	-1139.48229	63.26483	948.81462	-1157.66053	-50.69574	651.32279	-1309.26665	130.65470	349.50162	-1389.98136	133.30222	82.82839	-1422.98504	92.60226	119.69553	-1339.31499	99.61975	71.58542	-1053.84140	-3.27895	412.39235	-1092.92078	-58.41849	370.53795	-1205.51543	-91.26040	130.92259	-1218.15224	-22.94072	139.76807	-1241.95734	-61.18229	171.85030	-1168.99651	-52.69812	106.61980	-1253.92680	76.02251	378.96042	-1279.13368	-40.69935	704.91188	-1381.53989	64.93762	101.12119	-1222.53444	114.34929	657.04227	-1267.74667	46.98781	987.29181	-1303.23013	24.14804	708.26522	-1271.16827	11.25084	803.63114	-1109.14737	-130.50757	479.37382	-1302.49974	193.76920	477.73718	-1133.91856	-138.10890	277.29524	-1351.17070	196.50850	238.45293	
225	2.240	-1128.04818	61.69351	946.44666	-1147.10309	-50.79140	649.65624	-1305.27115	131.47477	349.46163	-1389.18476	134.30946	83.30952	-1421.63076	93.72790	120.79079	-1338.57331	100.68212	71.48271	-1038.18613	-1.26785	415.80591	-1074.89861	-56.49448	372.36335	-1175.19004	-89.90453	127.85678	-1189.06301	-21.81399	135.73566	-1213.99720	-60.41028	166.75135	-1137.98987	-50.95870	105.27280	-1248.98984	77.14132	377.62718	-1269.25678	-42.30849	702.23665	-1380.33335	66.12138	101.77458	-1213.46746	113.85307	656.52470	-1256.09795	45.74861	986.09892	-1293.72916	22.21348	706.31835	-1261.29272	9.53248	802.50145	-1094.07606	-129.23060	480.42384	-1296.34521	194.08726	477.79857	-1110.37754	-136.45676	277.36961	-1348.79855	197.50935	238.76899	
226	2.250	-1116.42167	59.99182	943.90350	-1136.29942	-50.96404	647.69084	-1300.72781	132.15080	349.22900	-1388.36817	135.17396	83.89345	-1420.18768	94.69034	122.00871	-1337.86334	101.60032	71.38249	-1023.70287	1.23376	418.19760	-1057.86754	-54.26961	373.39705	-1145.56669	-88.67327	124.40739	-1160.98450	-20.92790	131.29370	-1186.76366	-60.00519	161.22080	-1108.03851	-49.19198	103.48203	-1243.54860	78.12174	376.09897	-1259.07054	-43.86231	699.32340	-1379.08178	67.14786	102.44944	-1203.95037	113.35774	655.76305	-1244.27712	44.23523	984.59916	-1283.85074	20.38418	704.13632	-1251.08694	7.74304	801.07600	-1079.35405	-127.64387	480.71010	-1289.63067	194.34968	477.60051	-1087.37722	-134.63208	276.83111	-1346.08876	198.34456	239.03639	
227	2.260	-1104.62484	58.16811	941.25502	-1125.20538	-51.17748	645.47507	-1295.47777	132.65532	348.75078	-1387.46596	135.86205	84.63315	-1418.56377	95.44933	123.40916	-1337.14634	102.33680	71.30481	-1010.36714	4.21102	419.43069	-1041.85587	-51.78774	373.54606	-1117.07190	-87.63718	120.57306	-1134.33199	-20.35712	126.47200	-1160.63332	-60.03573	155.32527	-1079.56987	-47.47628	101.22485	-1237.44209	78.94956	374.33958	-1248.52460	-45.32225	696.23630	-1377.72403	67.97384	103.18177	-1193.95021	112.88699	654.74060	-1232.31513	42.42731	982.82141	-1273.55490	18.70081	701.74104	-1240.52157	5.92170	799.36663	-1064.94040	-125.74896	480.20974	-1282.27668	194.53620	477.09563	-1065.09611	-132.66536	275.63383	-1342.90010	198.97841	239.24612	
228	2.270	-1092.68439	56.23612	938.56962	-1113.79226	-51.39883	643.06436	-1289.35471	132.96919	347.96592	-1386.38856	136.35137	85.57987	-1416.64547	95.98120	125.04921	-1336.36653	102.86170	71.26997	-998.10460	7.60573	419.42258	-1026.85872	-49.11978	372.75898	-1090.16783	-86.86164	116.37812	-1109.52199	-20.15848	121.33420	-1136.00515	-60.54207	149.16699	-1053.02172	-45.89710	98.51009	-1230.50317	79.61480	372.30538	-1237.58556	-46.65274	693.04677	-1376.18437	68.56865	104.00786	-1183.44945	112.45904	653.43974	-1220.24692	40.31942	980.79840	-1262.81930	17.20013	699.15787	-1229.57762	4.11421	797.38984	-1050.78999	-123.57242	478.93426	-1274.20492	194.62823	476.23487	-1043.73785	-130.60262	273.76484	-1339.06735	199.38693	239.37991	
